<svg width="139" height="32" viewBox="0 0 139 32" fill="none" xmlns="http://www.w3.org/2000/svg">
<path d="M19.7614 8.45455H21.8636L26.8068 20.5284H26.9773L31.9205 8.45455H34.0227V23H32.375V11.9489H32.233L27.6875 23H26.0966L21.5511 11.9489H21.4091V23H19.7614V8.45455ZM41.9009 23.2273C40.8498 23.2273 39.9431 22.9953 39.1808 22.5312C38.4232 22.0625 37.8384 21.4091 37.4265 20.571C37.0193 19.7282 36.8157 18.7481 36.8157 17.6307C36.8157 16.5133 37.0193 15.5284 37.4265 14.6761C37.8384 13.8191 38.4113 13.1515 39.1452 12.6733C39.8839 12.1903 40.7456 11.9489 41.7305 11.9489C42.2987 11.9489 42.8597 12.0436 43.4137 12.233C43.9677 12.4223 44.4719 12.7301 44.9265 13.1562C45.381 13.5777 45.7433 14.1364 46.0131 14.8324C46.283 15.5284 46.418 16.3854 46.418 17.4034V18.1136H38.0089V16.6648H44.7134C44.7134 16.0492 44.5903 15.5 44.3441 15.017C44.1026 14.5341 43.757 14.1529 43.3072 13.8736C42.8621 13.5942 42.3365 13.4545 41.7305 13.4545C41.0629 13.4545 40.4852 13.6203 39.9975 13.9517C39.5146 14.2784 39.1429 14.7045 38.8825 15.2301C38.622 15.7557 38.4918 16.3191 38.4918 16.9205V17.8864C38.4918 18.7102 38.6339 19.4086 38.918 19.9815C39.2068 20.5497 39.6069 20.983 40.1183 21.2812C40.6296 21.5748 41.2238 21.7216 41.9009 21.7216C42.3413 21.7216 42.739 21.66 43.0941 21.5369C43.454 21.4091 43.7641 21.2197 44.0245 20.9688C44.2849 20.7131 44.4862 20.3958 44.6282 20.017L46.2475 20.4716C46.0771 21.0208 45.7906 21.5038 45.3881 21.9205C44.9857 22.3324 44.4885 22.6544 43.8967 22.8864C43.3048 23.1136 42.6396 23.2273 41.9009 23.2273ZM53.087 23.2273C52.1779 23.2273 51.3754 22.9976 50.6793 22.5384C49.9833 22.0743 49.4388 21.4209 49.0458 20.5781C48.6528 19.7306 48.4563 18.7292 48.4563 17.5739C48.4563 16.428 48.6528 15.4337 49.0458 14.5909C49.4388 13.7481 49.9857 13.0971 50.6864 12.6378C51.3872 12.1785 52.1969 11.9489 53.1154 11.9489C53.8256 11.9489 54.3867 12.0672 54.7987 12.304C55.2153 12.536 55.5326 12.8011 55.7504 13.0994C55.9729 13.393 56.1457 13.6345 56.2688 13.8239H56.4109V8.45455H58.087V23H56.4677V21.3239H56.2688C56.1457 21.5227 55.9705 21.7737 55.7433 22.0767C55.516 22.375 55.1916 22.6425 54.7702 22.8793C54.3488 23.1113 53.7878 23.2273 53.087 23.2273ZM53.3143 21.7216C53.9866 21.7216 54.5548 21.5464 55.0188 21.196C55.4828 20.8409 55.8356 20.3509 56.0771 19.7259C56.3185 19.0961 56.4393 18.3693 56.4393 17.5455C56.4393 16.7311 56.3209 16.0185 56.0842 15.4077C55.8474 14.7921 55.497 14.3139 55.033 13.973C54.569 13.6274 53.9961 13.4545 53.3143 13.4545C52.604 13.4545 52.0122 13.6368 51.5387 14.0014C51.07 14.3613 50.7172 14.8513 50.4805 15.4716C50.2485 16.0871 50.1325 16.7784 50.1325 17.5455C50.1325 18.322 50.2508 19.0275 50.4876 19.6619C50.729 20.2917 51.0842 20.7936 51.5529 21.1676C52.0264 21.5369 52.6135 21.7216 53.3143 21.7216ZM61.3896 23V12.0909H63.0657V23H61.3896ZM62.2418 10.2727C61.9151 10.2727 61.6334 10.1615 61.3967 9.93892C61.1647 9.71638 61.0487 9.44886 61.0487 9.13636C61.0487 8.82386 61.1647 8.55634 61.3967 8.33381C61.6334 8.11127 61.9151 8 62.2418 8C62.5685 8 62.8479 8.11127 63.0799 8.33381C63.3166 8.55634 63.435 8.82386 63.435 9.13636C63.435 9.44886 63.3166 9.71638 63.0799 9.93892C62.8479 10.1615 62.5685 10.2727 62.2418 10.2727ZM73.0107 18.5398V12.0909H74.6868V23H73.0107V21.1534H72.897C72.6413 21.7074 72.2436 22.1785 71.7038 22.5668C71.1641 22.9503 70.4822 23.142 69.6584 23.142C68.9766 23.142 68.3705 22.9929 67.8402 22.6946C67.3099 22.3916 66.8932 21.937 66.5902 21.331C66.2872 20.7202 66.1357 19.9508 66.1357 19.0227V12.0909H67.8118V18.9091C67.8118 19.7045 68.0343 20.339 68.4794 20.8125C68.9292 21.286 69.5021 21.5227 70.1982 21.5227C70.6148 21.5227 71.0386 21.4162 71.4695 21.2031C71.9051 20.9901 72.2696 20.6634 72.5632 20.223C72.8615 19.7827 73.0107 19.2216 73.0107 18.5398ZM77.7567 23V12.0909H79.3761V13.7955H79.5181C79.7454 13.2131 80.1123 12.7609 80.619 12.4389C81.1256 12.1122 81.734 11.9489 82.4442 11.9489C83.1639 11.9489 83.7629 12.1122 84.2411 12.4389C84.7241 12.7609 85.1005 13.2131 85.3704 13.7955H85.484C85.7634 13.232 86.1824 12.7846 86.7411 12.4531C87.2998 12.117 87.9698 11.9489 88.7511 11.9489C89.7264 11.9489 90.5243 12.2543 91.1445 12.8651C91.7648 13.4711 92.0749 14.4157 92.0749 15.6989V23H90.3988V15.6989C90.3988 14.8939 90.1786 14.3187 89.7383 13.973C89.2979 13.6274 88.7795 13.4545 88.1829 13.4545C87.4158 13.4545 86.8216 13.6866 86.4002 14.1506C85.9788 14.6098 85.7681 15.1922 85.7681 15.8977V23H84.0636V15.5284C84.0636 14.9081 83.8623 14.4086 83.4599 14.0298C83.0574 13.6463 82.5389 13.4545 81.9045 13.4545C81.4689 13.4545 81.0617 13.5705 80.6829 13.8026C80.3088 14.0346 80.0058 14.3565 79.7738 14.7685C79.5465 15.1757 79.4329 15.6468 79.4329 16.1818V23H77.7567Z" fill="black"/>
<g clip-path="url(#clip0_75609_16130)">
<path d="M120.068 19.1667H104.932C104.684 19.1667 104.448 19.0679 104.273 18.8919C104.098 18.7159 104 18.4773 104 18.2284C104 17.9796 104.098 17.7409 104.273 17.565C104.448 17.389 104.684 17.2902 104.932 17.2902H120.068C120.316 17.2902 120.552 17.389 120.727 17.565C120.902 17.7409 121 17.9796 121 18.2284C121 18.4773 120.902 18.7159 120.727 18.8919C120.552 19.0679 120.316 19.1667 120.068 19.1667Z" fill="#FF7A00"/>
<path d="M120.068 14.7099H104.932C104.684 14.7099 104.448 14.6111 104.273 14.4351C104.098 14.2591 104 14.0205 104 13.7716C104 13.5228 104.098 13.2841 104.273 13.1082C104.448 12.9322 104.684 12.8334 104.932 12.8334H120.068C120.316 12.8334 120.552 12.9322 120.727 13.1082C120.902 13.2841 121 13.5228 121 13.7716C121 14.0205 120.902 14.2591 120.727 14.4351C120.552 14.6111 120.316 14.7099 120.068 14.7099Z" fill="#FF7A00"/>
</g>
<defs>
<clipPath id="clip0_75609_16130">
<rect width="17" height="6.33333" fill="white" transform="translate(104 12.8334)"/>
</clipPath>
</defs>
</svg>
