<svg width="128" height="32" viewBox="0 0 128 32" fill="none" xmlns="http://www.w3.org/2000/svg">
<path d="M29.3068 8.45455H31.0682V18.0852C31.0682 19.0795 30.8338 19.9673 30.3651 20.7486C29.901 21.5251 29.2453 22.1383 28.3977 22.5881C27.5502 23.0331 26.5559 23.2557 25.4148 23.2557C24.2737 23.2557 23.2794 23.0331 22.4318 22.5881C21.5843 22.1383 20.9261 21.5251 20.4574 20.7486C19.9934 19.9673 19.7614 19.0795 19.7614 18.0852V8.45455H21.5227V17.9432C21.5227 18.6534 21.679 19.2855 21.9915 19.8395C22.304 20.3887 22.7491 20.822 23.3267 21.1392C23.9091 21.4517 24.6051 21.608 25.4148 21.608C26.2244 21.608 26.9205 21.4517 27.5028 21.1392C28.0852 20.822 28.5303 20.3887 28.8381 19.8395C29.1506 19.2855 29.3068 18.6534 29.3068 17.9432V8.45455ZM34.3583 23V12.0909H35.9776V13.7386H36.0913C36.2901 13.1989 36.65 12.7609 37.1708 12.4247C37.6916 12.0885 38.2788 11.9205 38.9322 11.9205C39.0553 11.9205 39.2092 11.9228 39.3938 11.9276C39.5785 11.9323 39.7182 11.9394 39.8129 11.9489V13.6534C39.756 13.6392 39.6258 13.6179 39.4222 13.5895C39.2234 13.5563 39.0127 13.5398 38.7901 13.5398C38.2598 13.5398 37.7863 13.651 37.3697 13.8736C36.9577 14.0914 36.631 14.3944 36.3896 14.7827C36.1528 15.1662 36.0344 15.6042 36.0344 16.0966V23H34.3583ZM45.8711 27.3182C45.0614 27.3182 44.3654 27.214 43.783 27.0057C43.2006 26.8021 42.7153 26.5322 42.3271 26.196C41.9435 25.8646 41.6381 25.5095 41.4109 25.1307L42.7461 24.1932C42.8976 24.392 43.0894 24.6193 43.3214 24.875C43.5534 25.1354 43.8706 25.3603 44.2731 25.5497C44.6803 25.7438 45.2129 25.8409 45.8711 25.8409C46.7518 25.8409 47.4786 25.6278 48.0515 25.2017C48.6244 24.7756 48.9109 24.108 48.9109 23.1989V20.983H48.7688C48.6457 21.1818 48.4705 21.428 48.2433 21.7216C48.0207 22.0104 47.6987 22.2685 47.2773 22.4957C46.8607 22.7183 46.2972 22.8295 45.587 22.8295C44.7063 22.8295 43.9156 22.6212 43.2148 22.2045C42.5188 21.7879 41.9672 21.1818 41.56 20.3864C41.1576 19.5909 40.9563 18.625 40.9563 17.4886C40.9563 16.3712 41.1528 15.3982 41.5458 14.5696C41.9388 13.7363 42.4857 13.0923 43.1864 12.6378C43.8872 12.1785 44.6969 11.9489 45.6154 11.9489C46.3256 11.9489 46.8891 12.0672 47.3058 12.304C47.7272 12.536 48.0491 12.8011 48.2717 13.0994C48.4989 13.393 48.6741 13.6345 48.7972 13.8239H48.9677V12.0909H50.587V23.3125C50.587 24.25 50.3739 25.0123 49.9478 25.5994C49.5264 26.1913 48.9582 26.6245 48.2433 26.8991C47.533 27.1785 46.7423 27.3182 45.8711 27.3182ZM45.8143 21.3239C46.4866 21.3239 47.0548 21.17 47.5188 20.8622C47.9828 20.5545 48.3356 20.1117 48.5771 19.5341C48.8185 18.9564 48.9393 18.2652 48.9393 17.4602C48.9393 16.6742 48.8209 15.9806 48.5842 15.3793C48.3474 14.7779 47.997 14.3068 47.533 13.9659C47.069 13.625 46.4961 13.4545 45.8143 13.4545C45.104 13.4545 44.5122 13.6345 44.0387 13.9943C43.57 14.3542 43.2172 14.8371 42.9805 15.4432C42.7485 16.0492 42.6325 16.7216 42.6325 17.4602C42.6325 18.2178 42.7508 18.8878 42.9876 19.4702C43.229 20.0478 43.5842 20.5024 44.0529 20.8338C44.5264 21.1605 45.1135 21.3239 45.8143 21.3239ZM58.229 23.2273C57.1779 23.2273 56.2712 22.9953 55.5089 22.5312C54.7513 22.0625 54.1665 21.4091 53.7546 20.571C53.3474 19.7282 53.1438 18.7481 53.1438 17.6307C53.1438 16.5133 53.3474 15.5284 53.7546 14.6761C54.1665 13.8191 54.7395 13.1515 55.4734 12.6733C56.212 12.1903 57.0737 11.9489 58.0586 11.9489C58.6268 11.9489 59.1879 12.0436 59.7418 12.233C60.2958 12.4223 60.8001 12.7301 61.2546 13.1562C61.7092 13.5777 62.0714 14.1364 62.3413 14.8324C62.6112 15.5284 62.7461 16.3854 62.7461 17.4034V18.1136H54.337V16.6648H61.0415C61.0415 16.0492 60.9184 15.5 60.6722 15.017C60.4308 14.5341 60.0851 14.1529 59.6353 13.8736C59.1902 13.5942 58.6647 13.4545 58.0586 13.4545C57.391 13.4545 56.8133 13.6203 56.3256 13.9517C55.8427 14.2784 55.471 14.7045 55.2106 15.2301C54.9502 15.7557 54.82 16.3191 54.82 16.9205V17.8864C54.82 18.7102 54.962 19.4086 55.2461 19.9815C55.5349 20.5497 55.935 20.983 56.4464 21.2812C56.9577 21.5748 57.552 21.7216 58.229 21.7216C58.6694 21.7216 59.0671 21.66 59.4222 21.5369C59.7821 21.4091 60.0922 21.2197 60.3526 20.9688C60.613 20.7131 60.8143 20.3958 60.9563 20.017L62.5756 20.4716C62.4052 21.0208 62.1187 21.5038 61.7163 21.9205C61.3138 22.3324 60.8166 22.6544 60.2248 22.8864C59.6329 23.1136 58.9677 23.2273 58.229 23.2273ZM66.9719 16.4375V23H65.2958V12.0909H66.9151V13.7955H67.0572C67.3129 13.2415 67.7011 12.7964 68.2219 12.4602C68.7428 12.1193 69.4151 11.9489 70.239 11.9489C70.9776 11.9489 71.6239 12.1004 72.1779 12.4034C72.7319 12.7017 73.1628 13.1562 73.4705 13.767C73.7783 14.3731 73.9322 15.1402 73.9322 16.0682V23H72.256V16.1818C72.256 15.3248 72.0335 14.6572 71.5884 14.179C71.1433 13.696 70.5326 13.4545 69.756 13.4545C69.221 13.4545 68.7428 13.5705 68.3214 13.8026C67.9047 14.0346 67.5756 14.3731 67.3342 14.8182C67.0927 15.2633 66.9719 15.803 66.9719 16.4375ZM81.7393 12.0909V13.5114H76.0859V12.0909H81.7393ZM77.7337 9.47727H79.4098V19.875C79.4098 20.3485 79.4785 20.7036 79.6158 20.9403C79.7578 21.1723 79.9377 21.3286 80.1555 21.4091C80.3781 21.4848 80.6125 21.5227 80.8587 21.5227C81.0433 21.5227 81.1948 21.5133 81.3132 21.4943C81.4316 21.4706 81.5263 21.4517 81.5973 21.4375L81.9382 22.9432C81.8246 22.9858 81.666 23.0284 81.4624 23.071C81.2588 23.1184 81.0007 23.142 80.6882 23.142C80.2147 23.142 79.7507 23.0402 79.2962 22.8366C78.8464 22.633 78.4723 22.3229 78.174 21.9062C77.8804 21.4896 77.7337 20.964 77.7337 20.3295V9.47727Z" fill="black"/>
<g clip-path="url(#clip0_75609_16144)">
<path d="M101.5 14.7549C101.699 14.7545 101.894 14.8165 102.054 14.9315L109.623 20.3655C109.721 20.4362 109.804 20.5251 109.868 20.6272C109.931 20.7292 109.972 20.8423 109.991 20.96C110.027 21.1978 109.965 21.44 109.818 21.6334C109.671 21.8267 109.451 21.9554 109.207 21.9911C108.962 22.0267 108.713 21.9665 108.514 21.8236L101.5 16.7926L94.4858 21.8236C94.3873 21.8943 94.2755 21.9455 94.1566 21.9743C94.0378 22.003 93.9143 22.0087 93.7932 21.9911C93.6721 21.9734 93.5558 21.9327 93.4508 21.8714C93.3459 21.81 93.2544 21.7291 93.1817 21.6334C93.1089 21.5376 93.0562 21.4289 93.0266 21.3134C92.9971 21.1978 92.9912 21.0778 93.0094 20.96C93.0275 20.8423 93.0694 20.7292 93.1325 20.6272C93.1956 20.5251 93.2788 20.4362 93.3773 20.3654L100.946 14.9315C101.106 14.8165 101.301 14.7545 101.5 14.7549Z" fill="#FF0000"/>
<path d="M101.5 10C101.699 9.99967 101.894 10.0616 102.054 10.1766L109.623 15.6106C109.822 15.7535 109.954 15.9674 109.991 16.2051C110.027 16.4429 109.965 16.6851 109.818 16.8785C109.671 17.0718 109.451 17.2005 109.207 17.2362C108.962 17.2718 108.713 17.2116 108.514 17.0687L101.5 12.0377L94.4858 17.0687C94.2869 17.2116 94.0378 17.2718 93.7932 17.2362C93.5486 17.2005 93.3287 17.0718 93.1817 16.8785C93.0347 16.6851 92.9727 16.4429 93.0094 16.2051C93.0461 15.9674 93.1784 15.7535 93.3773 15.6106L100.946 10.1766C101.106 10.0616 101.301 9.99967 101.5 10Z" fill="#FF0000"/>
</g>
<defs>
<clipPath id="clip0_75609_16144">
<rect width="17" height="12" fill="white" transform="translate(110 22) rotate(-180)"/>
</clipPath>
</defs>
</svg>
