<svg width="103" height="32" viewBox="0 0 103 32" fill="none" xmlns="http://www.w3.org/2000/svg">
<path d="M19.7614 23V8.45455H21.5227V21.4375H28.2841V23H19.7614ZM35.2159 23.2273C34.2311 23.2273 33.367 22.9929 32.6236 22.5241C31.8849 22.0554 31.3073 21.3996 30.8906 20.5568C30.4787 19.714 30.2727 18.7292 30.2727 17.6023C30.2727 16.4659 30.4787 15.474 30.8906 14.6264C31.3073 13.7789 31.8849 13.1207 32.6236 12.652C33.367 12.1832 34.2311 11.9489 35.2159 11.9489C36.2008 11.9489 37.0625 12.1832 37.8011 12.652C38.5445 13.1207 39.1222 13.7789 39.5341 14.6264C39.9508 15.474 40.1591 16.4659 40.1591 17.6023C40.1591 18.7292 39.9508 19.714 39.5341 20.5568C39.1222 21.3996 38.5445 22.0554 37.8011 22.5241C37.0625 22.9929 36.2008 23.2273 35.2159 23.2273ZM35.2159 21.7216C35.964 21.7216 36.5795 21.5298 37.0625 21.1463C37.5455 20.7628 37.9029 20.2585 38.1349 19.6335C38.367 19.0085 38.483 18.3314 38.483 17.6023C38.483 16.8731 38.367 16.1937 38.1349 15.5639C37.9029 14.9342 37.5455 14.4252 37.0625 14.0369C36.5795 13.6487 35.964 13.4545 35.2159 13.4545C34.4678 13.4545 33.8523 13.6487 33.3693 14.0369C32.8864 14.4252 32.5289 14.9342 32.2969 15.5639C32.0649 16.1937 31.9489 16.8731 31.9489 17.6023C31.9489 18.3314 32.0649 19.0085 32.2969 19.6335C32.5289 20.2585 32.8864 20.7628 33.3693 21.1463C33.8523 21.5298 34.4678 21.7216 35.2159 21.7216ZM44.8182 23L41.4943 12.0909H43.2557L45.6136 20.4432H45.7273L48.0568 12.0909H49.8466L52.1477 20.4148H52.2614L54.6193 12.0909H56.3807L53.0568 23H51.4091L49.0227 14.6193H48.8523L46.4659 23H44.8182Z" fill="black"/>
<g clip-path="url(#clip0_75609_16137)">
<path d="M76.5 17.2451C76.3006 17.2455 76.1063 17.1835 75.9457 17.0685L68.3772 11.6345C68.2788 11.5638 68.1956 11.4749 68.1325 11.3728C68.0693 11.2708 68.0275 11.1577 68.0093 11.04C67.9727 10.8022 68.0346 10.56 68.1816 10.3666C68.3286 10.1733 68.5486 10.0446 68.7932 10.0089C69.0377 9.97327 69.2869 10.0335 69.4857 10.1764L76.5 15.2074L83.5142 10.1764C83.6127 10.1057 83.7245 10.0545 83.8434 10.0257C83.9622 9.99698 84.0857 9.99128 84.2068 10.0089C84.3279 10.0266 84.4442 10.0673 84.5492 10.1286C84.6541 10.19 84.7456 10.2709 84.8183 10.3666C84.8911 10.4624 84.9438 10.5711 84.9734 10.6866C85.0029 10.8022 85.0088 10.9222 84.9906 11.04C84.9725 11.1577 84.9306 11.2708 84.8675 11.3728C84.8044 11.4749 84.7212 11.5638 84.6227 11.6346L77.0542 17.0685C76.8937 17.1835 76.6994 17.2455 76.5 17.2451Z" fill="#02CF2F"/>
<path d="M76.5 22C76.3006 22.0003 76.1063 21.9384 75.9457 21.8234L68.3772 16.3894C68.1784 16.2465 68.046 16.0326 68.0093 15.7949C67.9727 15.5571 68.0346 15.3149 68.1816 15.1215C68.3286 14.9282 68.5486 14.7995 68.7932 14.7638C69.0377 14.7282 69.2869 14.7884 69.4857 14.9313L76.5 19.9623L83.5142 14.9313C83.7131 14.7884 83.9622 14.7282 84.2068 14.7638C84.4514 14.7995 84.6713 14.9282 84.8183 15.1215C84.9653 15.3149 85.0273 15.5571 84.9906 15.7949C84.9539 16.0326 84.8216 16.2465 84.6227 16.3894L77.0542 21.8234C76.8937 21.9384 76.6994 22.0003 76.5 22Z" fill="#02CF2F"/>
</g>
<defs>
<clipPath id="clip0_75609_16137">
<rect width="17" height="12" fill="white" transform="translate(68 10)"/>
</clipPath>
</defs>
</svg>
