<svg width="168" height="64" viewBox="0 0 168 64" fill="none" xmlns="http://www.w3.org/2000/svg">
<g filter="url(#filter0_d_170_1482)">
<rect x="4" width="160" height="56" rx="10" fill="#29ABE2" shape-rendering="crispEdges"/>
<path d="M23.9599 36H20.4996L25.772 20.7273H29.9332L35.1982 36H31.7379L27.9123 24.2173H27.793L23.9599 36ZM23.7436 29.9968H31.9169V32.5174H23.7436V29.9968ZM40.6644 36.1864C39.7944 36.1864 39.0064 35.9627 38.3004 35.5153C37.5994 35.0629 37.0426 34.3991 36.63 33.5241C36.2223 32.6442 36.0185 31.5653 36.0185 30.2876C36.0185 28.9751 36.2298 27.8839 36.6523 27.0138C37.0749 26.1388 37.6367 25.4851 38.3377 25.0526C39.0437 24.6151 39.8168 24.3963 40.657 24.3963C41.2983 24.3963 41.8327 24.5057 42.2603 24.7244C42.6928 24.9382 43.0408 25.2067 43.3043 25.5298C43.5728 25.848 43.7766 26.1612 43.9158 26.4695H44.0128V20.7273H47.1822V36H44.0501V34.1655H43.9158C43.7667 34.4837 43.5554 34.7994 43.282 35.1126C43.0135 35.4208 42.663 35.6768 42.2305 35.8807C41.8029 36.0845 41.2809 36.1864 40.6644 36.1864ZM41.6712 33.6584C42.1832 33.6584 42.6158 33.5192 42.9688 33.2408C43.3267 32.9574 43.6001 32.5621 43.7891 32.055C43.983 31.5479 44.0799 30.9538 44.0799 30.2727C44.0799 29.5916 43.9854 29 43.7965 28.4979C43.6076 27.9957 43.3342 27.608 42.9762 27.3345C42.6183 27.0611 42.1832 26.9244 41.6712 26.9244C41.1491 26.9244 40.7092 27.0661 40.3512 27.3494C39.9933 27.6328 39.7223 28.0256 39.5384 28.5277C39.3544 29.0298 39.2624 29.6115 39.2624 30.2727C39.2624 30.9389 39.3544 31.5281 39.5384 32.0401C39.7273 32.5472 39.9982 32.945 40.3512 33.2333C40.7092 33.5167 41.1491 33.6584 41.6712 33.6584ZM54.015 36.1864C53.145 36.1864 52.357 35.9627 51.651 35.5153C50.95 35.0629 50.3932 34.3991 49.9806 33.5241C49.5729 32.6442 49.3691 31.5653 49.3691 30.2876C49.3691 28.9751 49.5803 27.8839 50.0029 27.0138C50.4255 26.1388 50.9873 25.4851 51.6883 25.0526C52.3943 24.6151 53.1673 24.3963 54.0075 24.3963C54.6489 24.3963 55.1833 24.5057 55.6109 24.7244C56.0434 24.9382 56.3914 25.2067 56.6549 25.5298C56.9234 25.848 57.1272 26.1612 57.2664 26.4695H57.3634V20.7273H60.5328V36H57.4007V34.1655H57.2664C57.1173 34.4837 56.906 34.7994 56.6325 35.1126C56.3641 35.4208 56.0136 35.6768 55.5811 35.8807C55.1535 36.0845 54.6315 36.1864 54.015 36.1864ZM55.0218 33.6584C55.5338 33.6584 55.9664 33.5192 56.3193 33.2408C56.6773 32.9574 56.9507 32.5621 57.1396 32.055C57.3335 31.5479 57.4305 30.9538 57.4305 30.2727C57.4305 29.5916 57.336 29 57.1471 28.4979C56.9582 27.9957 56.6847 27.608 56.3268 27.3345C55.9688 27.0611 55.5338 26.9244 55.0218 26.9244C54.4997 26.9244 54.0597 27.0661 53.7018 27.3494C53.3438 27.6328 53.0729 28.0256 52.8889 28.5277C52.705 29.0298 52.613 29.6115 52.613 30.2727C52.613 30.9389 52.705 31.5281 52.8889 32.0401C53.0779 32.5472 53.3488 32.945 53.7018 33.2333C54.0597 33.5167 54.4997 33.6584 55.0218 33.6584ZM74.0977 24.5455V26.9318H67.1997V24.5455H74.0977ZM68.7657 21.8011H71.9426V32.4801C71.9426 32.7734 71.9873 33.0021 72.0768 33.1662C72.1663 33.3253 72.2906 33.4371 72.4497 33.5018C72.6137 33.5664 72.8026 33.5987 73.0164 33.5987C73.1656 33.5987 73.3147 33.5863 73.4639 33.5614C73.613 33.5316 73.7274 33.5092 73.8069 33.4943L74.3066 35.8583C74.1475 35.908 73.9237 35.9652 73.6354 36.0298C73.347 36.0994 72.9965 36.1417 72.5839 36.1566C71.8183 36.1864 71.1471 36.0845 70.5704 35.8509C69.9987 35.6172 69.5537 35.2543 69.2355 34.7621C68.9173 34.2699 68.7607 33.6484 68.7657 32.8977V21.8011ZM79.4335 36.2163C78.7027 36.2163 78.0514 36.0895 77.4797 35.8359C76.9079 35.5774 76.4555 35.1971 76.1224 34.695C75.7943 34.1879 75.6302 33.5565 75.6302 32.8008C75.6302 32.1644 75.7471 31.63 75.9807 31.1974C76.2144 30.7649 76.5326 30.4169 76.9353 30.1534C77.338 29.8899 77.7954 29.6911 78.3074 29.5568C78.8245 29.4226 79.3664 29.3281 79.9332 29.2734C80.5993 29.2038 81.1363 29.1392 81.5439 29.0795C81.9516 29.0149 82.2474 28.9205 82.4314 28.7962C82.6153 28.6719 82.7073 28.4879 82.7073 28.2443V28.1996C82.7073 27.7273 82.5582 27.3619 82.2599 27.1033C81.9665 26.8448 81.5489 26.7156 81.007 26.7156C80.4353 26.7156 79.9804 26.8423 79.6423 27.0959C79.3042 27.3445 79.0805 27.6577 78.9711 28.0355L76.0329 27.7969C76.1821 27.1009 76.4754 26.4993 76.9129 25.9922C77.3504 25.4801 77.9147 25.0874 78.6057 24.8139C79.3018 24.5355 80.1072 24.3963 81.0219 24.3963C81.6583 24.3963 82.2673 24.4709 82.849 24.62C83.4356 24.7692 83.9552 25.0004 84.4076 25.3136C84.865 25.6268 85.2254 26.0295 85.4889 26.5217C85.7524 27.0089 85.8841 27.593 85.8841 28.2741V36H82.8714V34.4116H82.7819C82.5979 34.7695 82.3518 35.0852 82.0436 35.3587C81.7354 35.6271 81.365 35.8384 80.9324 35.9925C80.4999 36.1417 80.0003 36.2163 79.4335 36.2163ZM80.3433 34.0238C80.8106 34.0238 81.2233 33.9318 81.5812 33.7479C81.9392 33.5589 82.2201 33.3054 82.4239 32.9872C82.6278 32.669 82.7297 32.3086 82.7297 31.9059V30.6903C82.6302 30.755 82.4935 30.8146 82.3195 30.8693C82.1505 30.919 81.9591 30.9663 81.7453 31.011C81.5315 31.0508 81.3177 31.0881 81.104 31.1229C80.8902 31.1527 80.6963 31.18 80.5223 31.2049C80.1494 31.2596 79.8238 31.3466 79.5454 31.4659C79.267 31.5852 79.0507 31.7468 78.8966 31.9506C78.7425 32.1495 78.6654 32.3981 78.6654 32.6964C78.6654 33.1289 78.822 33.4595 79.1352 33.6882C79.4534 33.9119 79.8561 34.0238 80.3433 34.0238ZM97.8794 27.8118L94.971 27.9908C94.9213 27.7422 94.8144 27.5185 94.6503 27.3196C94.4862 27.1158 94.27 26.9542 94.0015 26.8349C93.738 26.7106 93.4223 26.6484 93.0544 26.6484C92.5622 26.6484 92.1471 26.7528 91.809 26.9616C91.471 27.1655 91.3019 27.4389 91.3019 27.782C91.3019 28.0554 91.4113 28.2866 91.6301 28.4755C91.8488 28.6644 92.2242 28.8161 92.7561 28.9304L94.8293 29.348C95.9429 29.5767 96.7732 29.9446 97.32 30.4517C97.8669 30.9588 98.1404 31.625 98.1404 32.4503C98.1404 33.201 97.9191 33.8597 97.4767 34.4265C97.0392 34.9933 96.4376 35.4357 95.672 35.7539C94.9113 36.0671 94.0338 36.2237 93.0395 36.2237C91.5232 36.2237 90.3151 35.908 89.4152 35.2766C88.5203 34.6403 87.9958 33.7752 87.8417 32.6815L90.9664 32.5174C91.0608 32.9798 91.2895 33.3327 91.6524 33.5763C92.0154 33.815 92.4802 33.9343 93.047 33.9343C93.6038 33.9343 94.0512 33.8274 94.3893 33.6136C94.7323 33.3949 94.9063 33.114 94.9113 32.771C94.9063 32.4826 94.7845 32.2464 94.5459 32.0625C94.3073 31.8736 93.9394 31.7294 93.4422 31.63L91.4585 31.2347C90.3399 31.011 89.5072 30.6232 88.9603 30.0714C88.4184 29.5195 88.1475 28.8161 88.1475 27.9609C88.1475 27.2251 88.3463 26.5913 88.7441 26.0593C89.1468 25.5273 89.711 25.1172 90.4369 24.8288C91.1677 24.5405 92.0228 24.3963 93.0022 24.3963C94.449 24.3963 95.5874 24.7021 96.4177 25.3136C97.2529 25.9251 97.7401 26.7578 97.8794 27.8118ZM103.019 32.7038L103.027 28.8931H103.489L107.158 24.5455H110.805L105.876 30.3026H105.122L103.019 32.7038ZM100.141 36V20.7273H103.318V36H100.141ZM107.3 36L103.929 31.011L106.047 28.7663L111.021 36H107.3Z" fill="white"/>
<mask id="mask0_170_1482" style="mask-type:alpha" maskUnits="userSpaceOnUse" x="116" y="12" width="32" height="32">
<rect x="116" y="12" width="32" height="32" fill="#D9D9D9"/>
</mask>
<g mask="url(#mask0_170_1482)">
<path d="M130.666 29.3327H122.666V26.666H130.666V18.666H133.333V26.666H141.333V29.3327H133.333V37.3327H130.666V29.3327Z" fill="white"/>
</g>
</g>
<defs>
<filter id="filter0_d_170_1482" x="0" y="0" width="168" height="64" filterUnits="userSpaceOnUse" color-interpolation-filters="sRGB">
<feFlood flood-opacity="0" result="BackgroundImageFix"/>
<feColorMatrix in="SourceAlpha" type="matrix" values="0 0 0 0 0 0 0 0 0 0 0 0 0 0 0 0 0 0 127 0" result="hardAlpha"/>
<feOffset dy="4"/>
<feGaussianBlur stdDeviation="2"/>
<feComposite in2="hardAlpha" operator="out"/>
<feColorMatrix type="matrix" values="0 0 0 0 0 0 0 0 0 0 0 0 0 0 0 0 0 0 0.25 0"/>
<feBlend mode="normal" in2="BackgroundImageFix" result="effect1_dropShadow_170_1482"/>
<feBlend mode="normal" in="SourceGraphic" in2="effect1_dropShadow_170_1482" result="shape"/>
</filter>
</defs>
</svg>
