<svg width="160" height="56" viewBox="0 0 160 56" fill="none" xmlns="http://www.w3.org/2000/svg">
<rect x="0.5" y="0.5" width="159" height="55" rx="9.5" fill="#091931"/>
<rect x="0.5" y="0.5" width="159" height="55" rx="9.5" stroke="#2A3647"/>
<path d="M19.9599 36H16.4996L21.772 20.7273H25.9332L31.1982 36H27.7379L23.9123 24.2173H23.793L19.9599 36ZM19.7436 29.9968H27.9169V32.5174H19.7436V29.9968ZM36.6644 36.1864C35.7944 36.1864 35.0064 35.9627 34.3004 35.5153C33.5994 35.0629 33.0426 34.3991 32.63 33.5241C32.2223 32.6442 32.0185 31.5653 32.0185 30.2876C32.0185 28.9751 32.2298 27.8839 32.6523 27.0138C33.0749 26.1388 33.6367 25.4851 34.3377 25.0526C35.0437 24.6151 35.8168 24.3963 36.657 24.3963C37.2983 24.3963 37.8327 24.5057 38.2603 24.7244C38.6928 24.9382 39.0408 25.2067 39.3043 25.5298C39.5728 25.848 39.7766 26.1612 39.9158 26.4695H40.0128V20.7273H43.1822V36H40.0501V34.1655H39.9158C39.7667 34.4837 39.5554 34.7994 39.282 35.1126C39.0135 35.4208 38.663 35.6768 38.2305 35.8807C37.8029 36.0845 37.2809 36.1864 36.6644 36.1864ZM37.6712 33.6584C38.1832 33.6584 38.6158 33.5192 38.9688 33.2408C39.3267 32.9574 39.6001 32.5621 39.7891 32.055C39.983 31.5479 40.0799 30.9538 40.0799 30.2727C40.0799 29.5916 39.9854 29 39.7965 28.4979C39.6076 27.9957 39.3342 27.608 38.9762 27.3345C38.6183 27.0611 38.1832 26.9244 37.6712 26.9244C37.1491 26.9244 36.7092 27.0661 36.3512 27.3494C35.9933 27.6328 35.7223 28.0256 35.5384 28.5277C35.3544 29.0298 35.2624 29.6115 35.2624 30.2727C35.2624 30.9389 35.3544 31.5281 35.5384 32.0401C35.7273 32.5472 35.9982 32.945 36.3512 33.2333C36.7092 33.5167 37.1491 33.6584 37.6712 33.6584ZM50.015 36.1864C49.145 36.1864 48.357 35.9627 47.651 35.5153C46.95 35.0629 46.3932 34.3991 45.9806 33.5241C45.5729 32.6442 45.3691 31.5653 45.3691 30.2876C45.3691 28.9751 45.5803 27.8839 46.0029 27.0138C46.4255 26.1388 46.9873 25.4851 47.6883 25.0526C48.3943 24.6151 49.1673 24.3963 50.0075 24.3963C50.6489 24.3963 51.1833 24.5057 51.6109 24.7244C52.0434 24.9382 52.3914 25.2067 52.6549 25.5298C52.9234 25.848 53.1272 26.1612 53.2664 26.4695H53.3634V20.7273H56.5328V36H53.4007V34.1655H53.2664C53.1173 34.4837 52.906 34.7994 52.6325 35.1126C52.3641 35.4208 52.0136 35.6768 51.5811 35.8807C51.1535 36.0845 50.6315 36.1864 50.015 36.1864ZM51.0218 33.6584C51.5338 33.6584 51.9664 33.5192 52.3193 33.2408C52.6773 32.9574 52.9507 32.5621 53.1396 32.055C53.3335 31.5479 53.4305 30.9538 53.4305 30.2727C53.4305 29.5916 53.336 29 53.1471 28.4979C52.9582 27.9957 52.6847 27.608 52.3268 27.3345C51.9688 27.0611 51.5338 26.9244 51.0218 26.9244C50.4997 26.9244 50.0597 27.0661 49.7018 27.3494C49.3438 27.6328 49.0729 28.0256 48.8889 28.5277C48.705 29.0298 48.613 29.6115 48.613 30.2727C48.613 30.9389 48.705 31.5281 48.8889 32.0401C49.0779 32.5472 49.3488 32.945 49.7018 33.2333C50.0597 33.5167 50.4997 33.6584 51.0218 33.6584ZM70.0977 24.5455V26.9318H63.1997V24.5455H70.0977ZM64.7657 21.8011H67.9426V32.4801C67.9426 32.7734 67.9873 33.0021 68.0768 33.1662C68.1663 33.3253 68.2906 33.4371 68.4497 33.5018C68.6137 33.5664 68.8026 33.5987 69.0164 33.5987C69.1656 33.5987 69.3147 33.5863 69.4639 33.5614C69.613 33.5316 69.7274 33.5092 69.8069 33.4943L70.3066 35.8583C70.1475 35.908 69.9237 35.9652 69.6354 36.0298C69.347 36.0994 68.9965 36.1417 68.5839 36.1566C67.8183 36.1864 67.1471 36.0845 66.5704 35.8509C65.9987 35.6172 65.5537 35.2543 65.2355 34.7621C64.9173 34.2699 64.7607 33.6484 64.7657 32.8977V21.8011ZM75.4335 36.2163C74.7027 36.2163 74.0514 36.0895 73.4797 35.8359C72.9079 35.5774 72.4555 35.1971 72.1224 34.695C71.7943 34.1879 71.6302 33.5565 71.6302 32.8008C71.6302 32.1644 71.7471 31.63 71.9807 31.1974C72.2144 30.7649 72.5326 30.4169 72.9353 30.1534C73.338 29.8899 73.7954 29.6911 74.3074 29.5568C74.8245 29.4226 75.3664 29.3281 75.9332 29.2734C76.5993 29.2038 77.1363 29.1392 77.5439 29.0795C77.9516 29.0149 78.2474 28.9205 78.4314 28.7962C78.6153 28.6719 78.7073 28.4879 78.7073 28.2443V28.1996C78.7073 27.7273 78.5582 27.3619 78.2599 27.1033C77.9665 26.8448 77.5489 26.7156 77.007 26.7156C76.4353 26.7156 75.9804 26.8423 75.6423 27.0959C75.3042 27.3445 75.0805 27.6577 74.9711 28.0355L72.0329 27.7969C72.1821 27.1009 72.4754 26.4993 72.9129 25.9922C73.3504 25.4801 73.9147 25.0874 74.6057 24.8139C75.3018 24.5355 76.1072 24.3963 77.0219 24.3963C77.6583 24.3963 78.2673 24.4709 78.849 24.62C79.4356 24.7692 79.9552 25.0004 80.4076 25.3136C80.865 25.6268 81.2254 26.0295 81.4889 26.5217C81.7524 27.0089 81.8841 27.593 81.8841 28.2741V36H78.8714V34.4116H78.7819C78.5979 34.7695 78.3518 35.0852 78.0436 35.3587C77.7354 35.6271 77.365 35.8384 76.9324 35.9925C76.4999 36.1417 76.0003 36.2163 75.4335 36.2163ZM76.3433 34.0238C76.8106 34.0238 77.2233 33.9318 77.5812 33.7479C77.9392 33.5589 78.2201 33.3054 78.4239 32.9872C78.6278 32.669 78.7297 32.3086 78.7297 31.9059V30.6903C78.6302 30.755 78.4935 30.8146 78.3195 30.8693C78.1505 30.919 77.9591 30.9663 77.7453 31.011C77.5315 31.0508 77.3177 31.0881 77.104 31.1229C76.8902 31.1527 76.6963 31.18 76.5223 31.2049C76.1494 31.2596 75.8238 31.3466 75.5454 31.4659C75.267 31.5852 75.0507 31.7468 74.8966 31.9506C74.7425 32.1495 74.6654 32.3981 74.6654 32.6964C74.6654 33.1289 74.822 33.4595 75.1352 33.6882C75.4534 33.9119 75.8561 34.0238 76.3433 34.0238ZM93.8794 27.8118L90.971 27.9908C90.9213 27.7422 90.8144 27.5185 90.6503 27.3196C90.4862 27.1158 90.27 26.9542 90.0015 26.8349C89.738 26.7106 89.4223 26.6484 89.0544 26.6484C88.5622 26.6484 88.1471 26.7528 87.809 26.9616C87.471 27.1655 87.3019 27.4389 87.3019 27.782C87.3019 28.0554 87.4113 28.2866 87.6301 28.4755C87.8488 28.6644 88.2242 28.8161 88.7561 28.9304L90.8293 29.348C91.9429 29.5767 92.7732 29.9446 93.32 30.4517C93.8669 30.9588 94.1404 31.625 94.1404 32.4503C94.1404 33.201 93.9191 33.8597 93.4767 34.4265C93.0392 34.9933 92.4376 35.4357 91.672 35.7539C90.9113 36.0671 90.0338 36.2237 89.0395 36.2237C87.5232 36.2237 86.3151 35.908 85.4152 35.2766C84.5203 34.6403 83.9958 33.7752 83.8417 32.6815L86.9664 32.5174C87.0608 32.9798 87.2895 33.3327 87.6524 33.5763C88.0154 33.815 88.4802 33.9343 89.047 33.9343C89.6038 33.9343 90.0512 33.8274 90.3893 33.6136C90.7323 33.3949 90.9063 33.114 90.9113 32.771C90.9063 32.4826 90.7845 32.2464 90.5459 32.0625C90.3073 31.8736 89.9394 31.7294 89.4422 31.63L87.4585 31.2347C86.3399 31.011 85.5072 30.6232 84.9603 30.0714C84.4184 29.5195 84.1475 28.8161 84.1475 27.9609C84.1475 27.2251 84.3463 26.5913 84.7441 26.0593C85.1468 25.5273 85.711 25.1172 86.4369 24.8288C87.1677 24.5405 88.0228 24.3963 89.0022 24.3963C90.449 24.3963 91.5874 24.7021 92.4177 25.3136C93.2529 25.9251 93.7401 26.7578 93.8794 27.8118ZM99.0194 32.7038L99.0268 28.8931H99.4892L103.158 24.5455H106.805L101.876 30.3026H101.122L99.0194 32.7038ZM96.1408 36V20.7273H99.3176V36H96.1408ZM103.3 36L99.9292 31.011L102.047 28.7663L107.021 36H103.3Z" fill="white"/>
<mask id="mask0_170_1488" style="mask-type:alpha" maskUnits="userSpaceOnUse" x="112" y="12" width="32" height="32">
<rect x="112" y="12" width="32" height="32" fill="#D9D9D9"/>
</mask>
<g mask="url(#mask0_170_1488)">
<path d="M126.666 29.3327H118.666V26.666H126.666V18.666H129.333V26.666H137.333V29.3327H129.333V37.3327H126.666V29.3327Z" fill="white"/>
</g>
</svg>
